<svg xmlns="http://www.w3.org/2000/svg" width="144" height="50.31" viewBox="0 0 164 50.31">
  <defs>
    <style>
      .cls-1 {
        fill: #18a0db;
      }

      .cls-2 {
        font-size: 24.85px;
        font-family: MicrosoftYaHei-Bold, Microsoft YaHei;
      }

      .cls-2, .cls-5 {
        fill: #fff;
      }

      .cls-3 {
        font-weight: 700;
      }

      .cls-4 {
        font-size: 36px;
        font-family: MicrosoftYaHei, Microsoft YaHei;
        letter-spacing: 0em;
      }

      .cls-5 {
        font-size: 43.22px;
        font-family: MVBoli, MV Boli;
      }
    </style>
  </defs>
  <g>
    <rect class="cls-1" x="0.5" y="8.9" width="163" height="38" rx="2" ry="2"/>
    <path class="cls-1" d="M177.5,5A1.51,1.51,0,0,1,179,6.5v34a1.51,1.51,0,0,1-1.5,1.5H18.5A1.51,1.51,0,0,1,17,40.5V6.5A1.51,1.51,0,0,1,18.5,5h159m0-1H18.5A2.5,2.5,0,0,0,16,6.5v34A2.5,2.5,0,0,0,18.5,43h159a2.5,2.5,0,0,0,2.5-2.5V6.5A2.5,2.5,0,0,0,177.5,4Z" transform="translate(-16 4.4)"/>
  </g>
  <text class="cls-2" transform="translate(16 37.43) scale(1.05 1)"><tspan class="cls-3">L </tspan><tspan class="cls-4" x="20.99" y="0" xml:space="preserve">  </tspan><tspan class="cls-3" x="42.3" y="0" xml:space="preserve"> R N B .</tspan></text>
  <text class="cls-5" transform="matrix(1, -0.02, 0.02, 1, 37.33, 37.44)">e</text>
</svg>