<svg xmlns="http://www.w3.org/2000/svg" width="80" height="80" viewBox="0 0 84.33 85">
  <defs>
    <style>
      .cls-1 {
        fill: #18a0db;
        stroke: #18a0db;
        stroke-miterlimit: 10;
        stroke-width: 2px;
      }
    </style>
  </defs>
  <path class="cls-1" d="M45.66,64.41l-1,1.6q-5.23,8.1-9.3,13.24A16.41,16.41,0,0,1,45,76.39q6.13,0,14.5,3.83l12.93,6.33,13.41,6.61q8.4,4.11,10.29,4.11c1.41,0,3.22-1.23,5.43-3.71l1.22,1.54a99.14,99.14,0,0,0-8.21,10.33q-7.17-3-22.19-10.78Q44.82,80.45,39.24,80.44a7.52,7.52,0,0,0-4.67,1.43,45.52,45.52,0,0,0-6.19,6.79l-.85,1-.94-1.83q5.67-7,12.84-17.63l3.35-4.9c.06-.12.33-.52.8-1.2A20.22,20.22,0,0,0,41.22,64a15,15,0,0,0-12.08,5.33q-4.49,5.34-4.49,14.35A18.63,18.63,0,0,0,29.87,97a17,17,0,0,0,12.72,5.44c3.5,0,7.52-1.61,12.09-4.85l1,1.72Q47.45,106,39.48,106a15,15,0,0,1-12.23-5.62q-4.58-5.61-4.58-15.09,0-11.87,6.07-19.71t15.32-7.84c1.1,0,2.18,0,3.25.11l.57.06L49.11,56Q60.63,38.51,70.19,30.76T89.8,23q7.08,0,11.14,4t4.06,11a28.81,28.81,0,0,1-3.87,13.58A35,35,0,0,1,89.8,64.44a25.86,25.86,0,0,1-14.68,4.71q-7,0-23.09-3.54C49.26,65,47.14,64.61,45.66,64.41ZM50,58.14q3.73.51,10.25,1.88Q74,62.93,79.79,62.93A21.46,21.46,0,0,0,95,56.8a19.1,19.1,0,0,0,6.52-14.35q0-7.31-4.09-11.63T86.5,26.48q-8.5,0-18.6,9-7,6.28-16.67,20.82Z" transform="translate(-21.67 -22)"/>
</svg>